# xmcd CD database file
#
# Track frame offsets:
#	182
#	11537
#	23440
#	37102
#	47895
#	60482
#	70595
#	85740
#	98640
#	109432
#	121012
#	133847
#	143570
#	157067
#	172312
#	186255
#	197857
#	212955
#	224187
#	236992
#	248895
#	261205
#	273595
#	283215
#	294827
#	306985
#
# Disc length: 4251 seconds
#
# Revision: 0
# Processed by: cddbd v1.4PL0 Copyright (c) Steve Scherf et al.
# Submitted via: CDex 1.50
#
DISCID=9a10991a
DTITLE=Slim Harpo - Shake Your Hips
DYEAR=1900
DGENRE=Blues
TTITLE0=Shake Your Hips
TTITLE1=Little Queen Bee (Got A Brand New King)
TTITLE2=Still Rainin´ In My Heart
TTITLE3=I Need Money (Keep Your Alibis)
TTITLE4=What´s Goin´ On Baby
TTITLE5=Harpo´s Blues
TTITLE6=Sittin´ Here Wonderin´ (Wondering Blues)
TTITLE7=We´re Two Of A Kind
TTITLE8=I´m Gonna Miss You (Like The Devil)
TTITLE9=Baby Scratch My Back
TTITLE10=I Don´t Want No One (To Take Me Away From You)
TTITLE11=Midnight Blues
TTITLE12=Lovin´ You
TTITLE13=Baby You Got What I Want
TTITLE14=Your Love For Me Is Gone
TTITLE15=I´m Your Bread Maker, Baby
TTITLE16=Stop Working Blues
TTITLE17=I´m Waiting On You Baby
TTITLE18=You´ll Never Find A Love (As True As Mine)
TTITLE19=Little Sally Walker
TTITLE20=I Gotta Stop Lovin´ You
TTITLE21=Blueberry Hill
TTITLE22=Something Inside Me
TTITLE23=Tonite I´m Lonely
TTITLE24=A Man Is Crying
TTITLE25=Still Rainin´ In My Heart
EXTD=
EXTT0=
EXTT1=
EXTT2=
EXTT3=
EXTT4=
EXTT5=
EXTT6=
EXTT7=
EXTT8=
EXTT9=
EXTT10=
EXTT11=
EXTT12=
EXTT13=
EXTT14=
EXTT15=
EXTT16=
EXTT17=
EXTT18=
EXTT19=
EXTT20=
EXTT21=
EXTT22=
EXTT23=
EXTT24=
EXTT25=
PLAYORDER=
